<?xml version="1.0" encoding="UTF-8"?>
<svg xmlns="http://www.w3.org/2000/svg" width="1030" height="329" viewBox="0 0 1030 329" fill="none">
  <path d="M496.895 110.78C496.561 136.447 489.556 139.415 480.637 148.333C474.809 154.162 360.025 264.978 360.025 264.978C334.428 290.558 318.855 288.784 318.855 255.322L318.82 185.851C318.82 166.996 307.426 160.833 292.169 176.107L200.841 264.996C175.244 290.575 159.671 288.802 159.671 255.339L159.601 185.711C159.601 166.82 148.172 160.658 132.898 175.932L41.5867 265.171C15.9895 290.733 0.276513 289.048 0.0658365 255.603C-0.0219455 242.049 -0.0219455 227.284 0.0658365 222.948C0.241401 214.047 -1.37379 197.052 15.1819 180.497L136.707 62.4472C162.305 36.8675 177.877 38.6407 177.877 72.1033V143.136C178.474 160.816 189.745 166.17 204.598 151.318L295.891 62.4297C321.489 36.85 337.061 38.6232 337.061 72.0857V143.066C337.535 160.728 348.596 166.329 363.273 152.055V152.09L363.308 152.02L455.514 62.219C481.111 36.6393 496.982 38.2545 496.947 71.8926C496.947 83.9714 497.07 96.7173 496.877 110.78H496.895Z" fill="#241CDD"></path>
  <path d="M590.57 76.4736V3.37781H614.589L628.055 44.3121C629.409 49.1159 630.559 54.6441 631.504 60.5031H632.134C633.284 54.0299 634.008 49.6356 635.583 44.3121L648.735 3.37781H672.643V76.4736H657.712L657.822 37.0041C657.933 29.4913 658.137 22.2778 658.547 17.3796H657.917C656.877 22.5928 655.728 28.4518 653.428 35.7598L639.962 76.4894H623.361L609.69 35.7598C607.596 28.9716 606.241 22.7031 605.202 17.3796H604.572C604.997 22.3881 605.202 29.6961 605.296 37.0041L605.406 76.4736H590.586H590.57Z" fill="#211D25"></path>
  <path d="M682.66 47.4466C682.66 29.9011 693.937 17.5846 712.207 17.5846C730.477 17.5846 741.659 29.9011 741.659 47.4466C741.659 64.9921 730.382 77.7339 712.207 77.7339C694.031 77.7339 682.66 65.4174 682.66 47.4466ZM726.728 47.4466C726.728 36.4846 721.294 29.0664 712.207 29.0664C703.119 29.0664 697.591 36.4846 697.591 47.4466C697.591 58.4086 703.119 66.3466 712.207 66.3466C721.294 66.3466 726.728 58.6134 726.728 47.4466Z" fill="#211D25"></path>
  <path d="M781.538 30.2161H768.907V57.0541C768.907 63.5273 771.616 65.8268 776.01 65.8268C777.884 65.8268 779.869 65.4173 781.538 64.6771V76.1589C779.554 76.7888 776.939 77.3086 773.49 77.3086C762.528 77.3086 754.385 72.6151 754.385 58.6133V30.2161H746.132V18.8288H754.385V5.47278H768.907V18.8445H781.538V30.2318V30.2161Z" fill="#211D25"></path>
  <path d="M790.515 0.0389404H805.761V12.3555H790.515V0.0389404ZM790.83 18.8287H805.446V76.4738H790.83V18.8287Z" fill="#211D25"></path>
  <path d="M855.248 18.8287H870.604L849.405 76.4738H832.379L811.904 18.8287H827.67L837.592 50.9903C838.836 55.2743 840.207 60.393 841.136 65.7165H841.656C842.601 60.393 843.955 55.3845 845.199 51.1005L855.216 18.8287H855.248Z" fill="#211D25"></path>
  <path d="M930.849 65.8269V75.9542C928.659 76.7889 925.84 77.3087 922.706 77.3087C913.413 77.3087 909.649 72.3001 909.649 64.4724V63.8424H909.239C906.94 72.3001 900.057 77.7339 890.229 77.7339C880.401 77.7339 872.479 72.5049 872.479 61.8579C872.479 48.9114 884.071 46.2969 895.978 44.4226C904.436 42.9579 908.72 41.2884 908.72 35.7601C908.72 31.4761 906.105 28.0269 899.222 28.0269C892.34 28.0269 888.67 31.2556 888.67 38.6739H874.464C874.779 24.9871 883.866 17.5846 899.207 17.5846C914.547 17.5846 923.021 24.7824 923.021 37.8391V61.5429C923.021 65.6064 924.895 66.7561 927.195 66.7561C928.549 66.7561 929.904 66.3466 930.849 65.8111V65.8269ZM908.704 51.5259V49.7461C905.475 51.3054 902.12 52.0456 899.096 52.6756C892.828 54.0301 887.095 55.0696 887.095 60.7239C887.095 65.2126 890.859 67.0869 895.348 67.0869C903.396 67.0869 908.72 61.3381 908.72 51.5259H908.704Z" fill="#211D25"></path>
  <path d="M966.664 30.2161H954.033V57.0541C954.033 63.5273 956.742 65.8268 961.136 65.8268C963.01 65.8268 964.995 65.4173 966.664 64.6771V76.1589C964.68 76.7888 962.065 77.3086 958.616 77.3086C947.654 77.3086 939.511 72.6151 939.511 58.6133V30.2161H931.258V18.8288H939.511V5.47278H954.033V18.8445H966.664V30.2318V30.2161Z" fill="#211D25"></path>
  <path d="M1029.32 50.8958H987.438C988.383 60.2985 992.967 66.7718 1001.74 66.7718C1008.01 66.7718 1012.91 63.543 1013.85 58.314H1028.58C1026.59 72.2055 1013.44 77.7338 1001.63 77.7338C984.084 77.7338 972.492 66.252 972.492 47.667C972.492 29.082 983.564 17.6002 1001.63 17.6002C1019.69 17.6002 1029.3 30.657 1029.3 48.4072V50.9115L1029.32 50.8958ZM987.864 41.3985H1014.28C1013.33 33.051 1008.95 28.6567 1001.64 28.6567C994.337 28.6567 989.533 33.1455 987.864 41.3985Z" fill="#211D25"></path>
  <path d="M639.331 119.928H655.522L628.574 193.024H610.509L583.986 119.928H600.901L615.628 163.792C617.297 168.911 618.762 174.234 619.707 179.243L620.132 178.928C620.967 174.533 622.006 169.84 623.991 163.792L639.347 119.928H639.331Z" fill="#211D25"></path>
  <path d="M709.292 167.446H667.413C668.358 176.849 672.941 183.322 681.714 183.322C687.983 183.322 692.881 180.093 693.826 174.864H708.552C706.568 188.756 693.416 194.284 681.604 194.284C664.058 194.284 652.466 182.802 652.466 164.217C652.466 145.632 663.539 134.15 681.604 134.15C699.669 134.15 709.277 147.207 709.277 164.957V167.462L709.292 167.446ZM667.838 157.949H694.251C693.306 149.601 688.928 145.207 681.62 145.207C674.312 145.207 669.508 149.696 667.838 157.949Z" fill="#211D25"></path>
  <path d="M770.466 154.909V193.024H755.944V157.728C755.944 149.68 751.881 145.727 745.612 145.727C737.879 145.616 732.87 151.775 732.87 162.437V193.04H718.254V135.395H732.036V148.656H732.351C734.225 139.159 741.753 134.15 750.841 134.15C762.433 134.15 770.466 142.183 770.466 154.925V154.909Z" fill="#211D25"></path>
  <path d="M812.439 146.766H799.807V173.604C799.807 180.077 802.516 182.377 806.91 182.377C808.785 182.377 810.769 181.967 812.439 181.227V192.709C810.454 193.339 807.84 193.859 804.39 193.859C793.428 193.859 785.286 189.165 785.286 175.163V146.766H777.033V135.379H785.286V122.007H799.807V135.379H812.439V146.766Z" fill="#211D25"></path>
  <path d="M858.902 135.379H873.424V193.024H859.737V179.967H859.312C857.438 189.37 850.019 194.268 841.042 194.268C829.56 194.268 821.307 186.44 821.307 173.273V135.363H835.829V170.344C835.829 178.597 839.798 182.66 846.161 182.66C853.673 182.66 858.902 177.132 858.902 165.43V135.363V135.379Z" fill="#211D25"></path>
  <path d="M919.46 134.45V148.026C917.791 147.506 915.917 147.081 913.712 147.081C904.939 147.081 900.025 152.924 900.025 165.036V193.024H885.409V135.379H899.505V150.215H899.93C900.875 140.718 906.088 134.135 916.216 134.135C917.46 134.135 918.515 134.245 919.445 134.45H919.46Z" fill="#211D25"></path>
  <path d="M979.5 167.446H937.621C938.566 176.849 943.149 183.322 951.922 183.322C958.191 183.322 963.089 180.093 964.034 174.864H978.76C976.776 188.756 963.624 194.284 951.812 194.284C934.266 194.284 922.674 182.802 922.674 164.217C922.674 145.632 933.747 134.15 951.812 134.15C969.877 134.15 979.485 147.207 979.485 164.957V167.462L979.5 167.446ZM938.046 157.949H964.459C963.514 149.601 959.136 145.207 951.828 145.207C944.52 145.207 939.716 149.696 938.046 157.949Z" fill="#211D25"></path>
  <path d="M587.64 272.813C587.64 250.574 601.311 235.218 623.046 235.218C642.056 235.218 655.208 246.18 655.838 264.245H639.867C639.143 254.118 632.874 247.96 623.062 247.96C610.84 247.96 603.437 258.087 603.437 272.813C603.437 287.54 610.95 298.076 623.062 298.076C632.669 298.076 639.347 291.713 639.977 281.791H656.168C655.444 299.651 641.962 310.818 623.062 310.818C601.343 310.818 587.656 295.257 587.656 272.813H587.64Z" fill="#211D25"></path>
  <path d="M722.444 298.927V309.054C720.255 309.889 717.436 310.409 714.301 310.409C705.009 310.409 701.245 305.4 701.245 297.572V296.942H700.835C698.536 305.4 691.653 310.834 681.825 310.834C671.997 310.834 664.075 305.605 664.075 294.958C664.075 282.011 675.667 279.397 687.574 277.523C696.031 276.058 700.315 274.388 700.315 268.86C700.315 264.576 697.701 261.127 690.818 261.127C683.935 261.127 680.266 264.356 680.266 271.774H666.059C666.374 258.087 675.462 250.685 690.802 250.685C706.143 250.685 714.616 257.882 714.616 270.939V294.643C714.616 298.706 716.491 299.856 718.79 299.856C720.145 299.856 721.499 299.447 722.444 298.911V298.927ZM700.3 284.626V282.846C697.071 284.405 693.716 285.146 690.692 285.776C684.424 287.13 678.691 288.17 678.691 293.824C678.691 298.313 682.455 300.187 686.944 300.187C694.992 300.187 700.315 294.438 700.315 284.626H700.3Z" fill="#211D25"></path>
  <path d="M786.767 280.657C786.767 298.313 776.12 310.724 762.338 310.724C753.881 310.724 746.573 306.03 743.848 297.462H743.533C743.738 300.281 743.848 303.101 743.848 306.644V327.324H729.232V251.929H743.123V265.19H743.438C745.832 256.103 753.361 250.685 762.764 250.685C776.86 250.685 786.783 263.001 786.783 280.657H786.767ZM771.836 280.657C771.836 269.585 766.402 262.182 757.944 262.182C749.061 262.182 743.423 270.325 743.423 280.972C743.423 291.619 749.061 299.462 757.724 299.462C766.386 299.462 771.82 292.044 771.82 280.673L771.836 280.657Z" fill="#211D25"></path>
  <path d="M795.429 233.139H810.675V245.456H795.429V233.139ZM795.744 251.929H810.36V309.574H795.744V251.929Z" fill="#211D25"></path>
  <path d="M854.004 263.316H841.373V290.154C841.373 296.627 844.082 298.927 848.476 298.927C850.35 298.927 852.335 298.517 854.004 297.777V309.259C852.02 309.889 849.405 310.409 845.956 310.409C834.994 310.409 826.851 305.715 826.851 291.713V263.316H818.598V251.929H826.851V238.557H841.373V251.929H854.004V263.316Z" fill="#211D25"></path>
  <path d="M919.366 298.927V309.054C917.177 309.889 914.358 310.409 911.223 310.409C901.931 310.409 898.167 305.4 898.167 297.572V296.942H897.757C895.458 305.4 888.575 310.834 878.747 310.834C868.919 310.834 860.997 305.605 860.997 294.958C860.997 282.011 872.589 279.397 884.496 277.523C892.953 276.058 897.237 274.388 897.237 268.86C897.237 264.576 894.623 261.127 887.74 261.127C880.857 261.127 877.188 264.356 877.188 271.774H862.981C863.296 258.087 872.384 250.685 887.724 250.685C903.065 250.685 911.538 257.882 911.538 270.939V294.643C911.538 298.706 913.413 299.856 915.712 299.856C917.067 299.856 918.421 299.447 919.366 298.911V298.927ZM897.222 284.626V282.846C893.993 284.405 890.638 285.146 887.614 285.776C881.346 287.13 875.613 288.17 875.613 293.824C875.613 298.313 879.377 300.187 883.866 300.187C891.914 300.187 897.237 294.438 897.237 284.626H897.222Z" fill="#211D25"></path>
  <path d="M926.139 233.139H940.755V309.574H926.139V233.139Z" fill="#211D25"></path>
</svg>
