<?xml version="1.0" encoding="UTF-8"?>
<svg xmlns="http://www.w3.org/2000/svg" width="600" height="300" viewBox="0 0 600 300" fill="none">
  <g clip-path="url(#clip0_4_753)">
    <path fill-rule="evenodd" clip-rule="evenodd" d="M91.4208 107.408C86.3075 107.321 84.3192 102.641 85.4486 98.9755L75.8469 89.3594C75.1887 89.5629 74.5041 89.6695 73.8152 89.6758C65.4901 89.5333 65.4901 77.1401 73.8152 77C78.9069 77.0869 80.8829 81.7573 79.7465 85.4038L89.3216 94.9862C90.0008 94.7709 90.7084 94.6578 91.4208 94.6505C99.7965 94.8025 99.7939 107.268 91.4208 107.408ZM32.3451 99.5235C31.4473 97.582 29.57 96.0919 26.7155 96.0412C18.3904 96.1812 18.3904 108.575 26.7155 108.717C29.6665 108.664 31.5704 107.077 32.4271 105.042H46.2417C47.1297 107.034 49.0266 108.572 51.9366 108.62C60.3098 108.478 60.3123 96.0124 51.9366 95.8699C48.9902 95.918 47.0816 97.4949 46.2104 99.5235H32.3451ZM414.921 117.186C403.889 118.841 396.857 123.381 393.012 131.343C390.743 135.996 389.784 140.191 389.474 146.383C388.936 158.194 392.37 168.926 398.471 174.734C402.965 179.003 410.693 181.889 417.687 181.978H419.725L422.684 185.709C424.298 187.786 427.605 191.942 430.026 194.98L434.372 200.481L435.792 199.443C436.561 198.865 438.638 197.289 440.378 195.941L443.568 193.48L438.378 187.479L433.229 181.442L436.378 180.249C440.416 178.711 442.451 177.44 445.309 174.518C448.686 171.056 451.034 166.17 452.493 159.476C452.803 157.977 452.993 154.475 452.955 149.283C452.917 142.05 452.841 141.089 451.917 137.626C449.686 129.203 445.499 123.741 438.774 120.393C433.853 117.979 430.625 117.317 422.82 117.162C419.111 117.071 415.573 117.109 414.921 117.186ZM426.76 127.534C433.603 128.995 437.859 132.881 439.831 139.536C440.945 143.306 441.366 148.884 440.869 153.193C439.714 163.347 435.868 168.694 428.026 171.118C426.684 171.541 424.57 171.696 421.27 171.696C417.168 171.696 416.08 171.541 413.621 170.696C405.278 167.771 401.63 161.348 401.592 149.462C401.55 141.152 403.168 136.035 406.934 132.188C411.203 127.841 419.301 125.958 426.76 127.534ZM336.436 117.341C332.553 117.88 329.404 118.79 326.48 120.225C319.679 123.572 316.717 128.534 316.717 136.689C316.717 145.46 319.907 150.578 326.904 153.077C330.094 154.193 334.591 154.654 342.471 154.654C346.161 154.654 349.851 154.847 350.658 155.076C354.038 156.001 355.849 159.001 355.425 163.002C355.004 166.962 352.504 169.658 347.893 171.041C345.009 171.964 334.553 171.925 329.597 171.041C326.29 170.464 321.062 169.194 319.641 168.655C319.062 168.426 319.024 168.897 319.1 173.726L319.217 179.039L321.148 179.539C327.319 181.176 333.677 181.988 340.06 181.954C351.013 181.954 358.586 179.568 362.931 174.71C365.814 171.478 367.083 167.631 367.083 161.939C367.083 154.014 364.393 148.938 358.817 146.32C354.858 144.475 352.82 144.166 342.674 143.905C333.563 143.664 332.987 143.635 331.487 142.751C329.556 141.674 328.683 140.251 328.376 137.711C327.914 133.789 329.873 130.403 333.601 128.749C337.37 127.095 344.019 126.556 351.247 127.363C354.782 127.75 360.969 129.095 363.352 129.981C363.764 130.153 364.188 130.294 364.621 130.403C364.697 130.403 364.776 128.056 364.776 125.209V120.029L363.738 119.607C363.124 119.365 360.662 118.759 358.241 118.22C354.589 117.452 352.513 117.254 346.326 117.143C342.196 117.071 337.743 117.148 336.436 117.341ZM165.653 181.58V149.462V117.348H181.719C194.211 117.348 198.323 117.503 200.362 117.926C209.317 119.819 213.699 125.503 213.699 135.274C213.699 146.733 206.819 154.311 193.173 157.733C192.686 157.856 192.238 157.972 191.824 158.079C189.246 158.747 188.037 159.06 187.386 158.594C186.811 158.182 186.671 157.164 186.408 155.247L186.408 155.247C186.362 154.911 186.312 154.548 186.255 154.156C185.964 152.387 185.728 150.763 185.596 149.856L185.596 149.855C185.536 149.441 185.498 149.177 185.485 149.116C185.485 148.964 186.945 148.387 188.791 147.887C197.44 145.54 201.399 141.693 201.399 135.615C201.399 131.992 200.352 129.882 197.939 128.612C196.325 127.766 195.941 127.728 186.716 127.728H177.182V181.58H165.653ZM257.403 117.613C257.287 117.806 255.019 123.114 252.335 129.463C250.784 133.133 248.418 138.706 246.014 144.367L245.997 144.407L245.986 144.433L245.966 144.479L245.959 144.497C244.223 148.585 242.47 152.712 240.994 156.196C240.295 157.844 239.584 159.521 238.885 161.173L238.882 161.179C236.04 167.886 233.377 174.169 232.423 176.391L230.307 181.392L236.112 181.508C239.302 181.547 242.032 181.47 242.186 181.315C242.427 181.047 250.632 161.081 259.56 138.963C261.558 134.039 263.327 130.001 263.517 129.963C263.787 129.963 273.666 152.887 273.666 153.58C273.666 153.774 270.744 153.889 267.17 153.889H260.711L258.78 158.775L256.898 163.696L267.39 163.812L277.923 163.89L278.999 166.304C279.615 167.611 281.268 171.574 282.727 175.111L285.382 181.576H291.655C295.075 181.576 297.881 181.499 297.881 181.422C297.881 181.306 296.689 178.497 295.227 175.143C294.304 173.025 292.585 169.058 290.739 164.795L290.73 164.776C289.655 162.292 288.535 159.709 287.505 157.333C284.737 150.871 281.432 143.254 280.165 140.407C279.476 138.86 278.367 136.279 277.158 133.467L277.156 133.464C276.141 131.103 275.056 128.579 274.091 126.367L270.247 117.519L263.906 117.405C260.438 117.371 257.477 117.456 257.403 117.613ZM496.878 125.419C498.454 121.727 499.837 118.38 499.954 117.996C500.147 117.419 500.796 117.342 506.622 117.339H513.04L514.385 120.493C514.67 121.148 515.244 122.479 515.998 124.224C517.278 127.189 519.075 131.35 520.841 135.419C523.648 141.882 526.417 148.264 526.993 149.65C527.523 150.924 530.197 157.074 533.133 163.825L533.167 163.903L533.168 163.906L533.911 165.615C537.139 173 540.022 179.655 540.294 180.31L540.832 181.58H528.262L526.8 178.001C526.453 177.175 525.944 175.973 525.381 174.645C524.633 172.88 523.791 170.893 523.11 169.269L520.882 164.077L510.264 163.961C501.998 163.884 499.653 163.768 499.808 163.384C499.882 163.233 500.283 162.221 500.829 160.844L500.833 160.833L500.836 160.823C501.128 160.088 501.46 159.249 501.805 158.383L503.612 153.884H510.147C515.224 153.884 516.644 153.768 516.489 153.381C515.375 150.614 507.188 131.147 506.802 130.457C506.574 129.957 506.226 129.686 506.112 129.88C505.919 130.225 503.001 137.38 491.659 165.308C488.46 173.193 485.652 180.078 485.384 180.616L484.959 181.582H479.041C475.813 181.582 473.161 181.505 473.161 181.389C473.161 181.312 473.965 179.351 474.931 177.081C475.937 174.811 480.617 163.732 485.346 152.539C486.878 148.935 488.452 145.232 489.935 141.742C493.075 134.356 495.807 127.927 496.878 125.419ZM562.714 149.461V181.579H600V171.579H574.629V117.341H562.714V149.461ZM37.1103 155.86C28.7372 155.718 28.7394 143.249 37.1103 143.109C45.486 143.252 45.4835 155.718 37.1103 155.86ZM23.1681 190.223C17.7991 192.749 18.7451 202.157 25.984 202.278C33.3198 202.155 34.191 192.526 28.5974 190.145V176.463C34.1306 173.968 33.2113 164.349 25.8394 164.221C18.4435 164.337 17.5504 174.05 23.1681 176.484V190.223ZM12.2136 147.616C13.2681 151.238 11.2798 155.812 6.24374 155.896C-2.08125 155.754 -2.08125 143.361 6.24374 143.221C6.98883 143.227 7.72824 143.351 8.43479 143.588L18.9679 132.851C17.795 129.156 19.7929 124.399 24.9593 124.317C33.3809 124.462 33.3809 137 24.9593 137.142C24.2336 137.136 23.5127 137.02 22.8212 136.799L12.2136 147.616ZM47.6063 117.757C55.931 117.899 55.931 130.292 47.6063 130.432C39.2812 130.29 39.2837 117.899 47.6063 117.757ZM41.2895 174.913C41.4221 166.596 53.9847 166.687 54.0303 174.913C54.0255 183.275 41.2895 183.348 41.2895 174.913ZM73.1343 191.84C64.8092 191.697 64.8117 179.304 73.1343 179.162C81.4521 179.304 81.4521 191.697 73.1343 191.84ZM73.1342 155.86C64.761 155.718 64.761 143.249 73.1342 143.109C81.5027 143.252 81.5001 155.718 73.1342 155.86ZM66.8316 213.888C65.8882 217.489 67.8933 221.915 72.8499 222C81.1724 221.86 81.175 209.467 72.8499 209.324C72.0315 209.329 71.2201 209.478 70.4536 209.766L60.4443 199.841C61.5905 196.194 59.6142 191.517 54.518 191.429C46.193 191.572 46.193 203.965 54.518 204.108C55.2339 204.1 55.9444 203.986 56.627 203.77L66.8316 213.888ZM98.5742 181.326C90.2443 181.326 90.1285 168.662 98.5742 168.612C106.829 168.66 106.711 181.331 98.5742 181.326ZM77.6004 109.07C83.5579 114.866 74.4803 123.801 68.6575 117.981C62.6974 112.183 71.8523 103.071 77.6004 109.07ZM98.5015 117.757C106.827 117.899 106.827 130.292 98.5015 130.432C90.1764 130.29 90.179 117.899 98.5015 117.757ZM119.512 202.798C116.733 202.752 114.875 201.349 113.943 199.483H100.037C99.2141 201.682 97.2523 203.426 94.1781 203.416C86.0413 203.267 85.8894 190.859 94.1781 190.617C97.0158 190.617 98.8859 192.054 99.8052 193.955H113.675C114.494 191.803 116.438 190.091 119.51 190.038C127.886 190.19 127.886 202.656 119.512 202.798ZM109.092 143.109C117.465 143.252 117.465 155.718 109.092 155.86C100.706 155.718 100.709 143.249 109.092 143.109ZM120.235 96.728C127.529 96.8534 128.471 106.334 123.051 108.865V122.492C128.803 124.808 127.964 134.634 120.536 134.758C113.321 134.634 112.332 125.369 117.537 122.715V108.921C111.985 106.469 112.887 96.8462 120.235 96.728ZM137.374 155.875C137.977 156.043 138.599 156.131 139.225 156.138C147.55 156.01 147.55 143.604 139.225 143.462C134.032 143.549 132.078 148.408 133.368 152.083L123.42 162.226C122.748 162.016 122.05 161.906 121.347 161.9C112.973 162.042 112.973 174.508 121.347 174.65C126.489 174.563 128.475 169.825 127.297 166.152L137.374 155.875Z" fill="#00704A"></path>
  </g>
  <defs>
    <clipPath id="clip0_4_753">
      <rect width="600" height="300" fill="white"></rect>
    </clipPath>
  </defs>
</svg>
